<?xml version="1.0" standalone="no"?>
<!DOCTYPE svg PUBLIC "-//W3C//DTD SVG 20010904//EN"
 "http://www.w3.org/TR/2001/REC-SVG-20010904/DTD/svg10.dtd">
<svg version="1.0" xmlns="http://www.w3.org/2000/svg"
 width="300.000000pt" height="300.000000pt" viewBox="0 0 300.000000 300.000000"
 preserveAspectRatio="xMidYMid meet">
<metadata>
Created by potrace 1.14, written by Peter Selinger 2001-2017
</metadata>
<g transform="translate(0.000000,300.000000) scale(0.100000,-0.100000)"
fill="#000000" stroke="none">
<path d="M512 2109 l3 -111 283 -103 c156 -56 285 -105 288 -108 4 -4 -74 -33
-453 -168 l-123 -44 0 -113 c0 -87 3 -113 13 -109 6 3 189 76 405 162 l393
157 -3 117 -3 116 -390 157 c-214 86 -396 156 -403 157 -10 1 -12 -24 -10
-110z"/>
<path d="M1360 1020 l0 -100 510 0 510 0 0 100 0 100 -510 0 -510 0 0 -100z"/>
</g>
</svg>
